#!OML:ASF G:\ViconDB\ViconDB\414\test\team2\shane.ASF
:FULLY-SPECIFIED
:DEGREES
159
root 2.93527 16.2241 -7.88142 -4.86357 0.510489 -6.45099
lowerback 6.95679 6.96558 7.08673
upperback 1.10972 9.73715 -3.18369
thorax -0.968642 4.89074 -7.87221
lowerneck -14.3983 -11.9127 -13.0163
upperneck 19.8636 -17.5115 16.0631
head 11.5233 -7.43197 5.17742
rclavicle -1.43324e-013 2.06736e-014
rhumerus -24.7137 24.256 -98.8579
rradius 34.7694
rwrist 33.0853
rhand -31.7357 -13.2105
rfingers 7.12502
rthumb -4.99352 -43.1317
lclavicle -1.43324e-013 2.06736e-014
lhumerus -50.3815 -11.7873 87.543
lradius 29.2021
lwrist -9.34431
lhand -37.3367 6.8255
lfingers 7.12502
lthumb -10.3995 36.5483
rfemur 35.2512 -10.0877 22.6818
rtibia 9.54166e-015
rfoot -18.2069 6.87623
rtoes -17.1872
lfemur -28.8258 8.21346 -13.0947
ltibia 40.2019
lfoot -25.6371 -15.707
ltoes -11.5592
160
root 2.96153 16.211 -7.69701 -4.56961 0.38185 -6.09083
lowerback 7.02106 6.98787 6.70371
upperback 0.91134 9.74136 -3.32007
thorax -1.25099 4.87347 -7.83569
lowerneck -14.4994 -11.8569 -13.0171
upperneck 19.9325 -17.4143 16.0007
head 11.5448 -7.38689 5.171
rclavicle -1.42628e-013 3.33958e-014
rhumerus -25.1637 23.1154 -99.2711
rradius 33.7921
rwrist 33.2466
rhand -31.9326 -13.2716
rfingers 7.12502
rthumb -5.18363 -43.1882
lclavicle -1.42628e-013 3.33958e-014
lhumerus -50.1725 -11.1597 87.3427
lradius 29.0585
lwrist -9.49914
lhand -37.2439 6.97863
lfingers 7.12502
lthumb -10.3099 36.7059
rfemur 35.5875 -9.87164 22.1293
rtibia 2.54444e-014
rfoot -17.8652 6.86383
rtoes -18.5779
lfemur -29.1387 7.20247 -13.4722
ltibia 40.8487
lfoot -22.3114 -14.3862
ltoes -10.5894
161
root 2.9909 16.1972 -7.51574 -4.31832 0.40728 -6.06308
lowerback 7.01651 6.93428 6.70957
upperback 0.81257 9.67071 -3.33802
thorax -1.36059 4.82938 -7.86476
lowerneck -14.6261 -11.8219 -13.033
upperneck 19.8881 -17.3637 16.0887
head 11.5566 -7.35067 5.21013
rclavicle -9.651e-014 1.59028e-015
rhumerus -25.5311 21.5627 -99.5212
rradius 32.9236
rwrist 33.3628
rhand -31.6972 -13.362
rfingers 7.12502
rthumb -4.95639 -43.284
lclavicle -9.651e-014 1.59028e-015
lhumerus -49.7375 -10.4917 87.2353
lradius 28.7495
lwrist -9.63326
lhand -36.9912 6.89839
lfingers 7.12502
lthumb -10.0661 36.6376
rfemur 35.9647 -9.84838 21.9106
rtibia 1.90833e-014
rfoot -17.21 6.85559
rtoes -19.4789
lfemur -29.3081 6.46762 -13.5854
ltibia 41.5596
lfoot -20.3481 -12.9353
ltoes -9.47747
162
root 3.0192 16.1852 -7.33415 -4.15654 0.364121 -5.82531
lowerback 6.94095 6.96608 6.42928
upperback 0.885662 9.68491 -3.4135
thorax -1.27278 4.84432 -7.77372
lowerneck -14.7996 -11.9078 -13.2721
upperneck 19.7302 -17.4796 16.427
head 11.6166 -7.38161 5.33926
rclavicle -1.13407e-013 1.59028e-015
rhumerus -25.666 20.0139 -99.5014
rradius 32.0306
rwrist 34.0262
rhand -31.3766 -13.7361
rfingers 7.12502
rthumb -4.64677 -43.6651
lclavicle -1.13407e-013 1.59028e-015
lhumerus -48.9644 -10.0054 87.0743
lradius 28.3661
lwrist -9.78129
lhand -37.0542 6.87465
lfingers 7.12502
lthumb -10.127 36.6109
rfemur 36.3824 -9.74985 21.4799
rtibia -3.18055e-015
rfoot -16.2308 6.49508
rtoes -21.7333
lfemur -29.2435 5.88912 -13.8629
ltibia 42.3095
lfoot -19.7316 -11.3408
ltoes -10.0161
163
root 3.0483 16.1809 -7.15198 -4.0842 0.68947 -5.71036
lowerback 6.85254 6.82411 6.18358
upperback 1.05584 9.47135 -3.33634
thorax -1.1374 4.74794 -7.52673
lowerneck -15.3022 -11.9131 -13.0747
upperneck 19.6732 -17.4119 16.2093
head 11.6357 -7.3314 5.21571
rclavicle -7.36497e-014 1.43125e-014
rhumerus -25.9814 18.0966 -99.3663
rradius 31.1371
rwrist 35.1295
rhand -31.4222 -13.767
rfingers 7.12502
rthumb -4.69081 -43.695
lclavicle -7.36497e-014 1.43125e-014
lhumerus -48.1404 -9.62698 87.3253
lradius 27.8376
lwrist -9.85218
lhand -37.1376 7.22626
lfingers 7.12502
lthumb -10.2074 36.9586
rfemur 36.9233 -9.98802 21.054
rtibia 1.27222e-014
rfoot -14.8478 6.67138
rtoes -23.2727
lfemur -29.0978 5.4242 -14.0489
ltibia 43.0505
lfoot -19.5625 -10.8969
ltoes -9.43666
164
root 3.07308 16.1854 -6.96776 -4.14177 0.730019 -5.49907
lowerback 6.78002 6.75853 5.88497
upperback 1.3162 9.35588 -3.34486
thorax -0.891879 4.70868 -7.33715
lowerneck -15.814 -11.7956 -12.8308
upperneck 19.541 -17.2388 16.2549
head 11.6381 -7.20619 5.20471
rclavicle 1.31198e-014 -4.77083e-015
rhumerus -26.3034 16.5974 -99.4048
rradius 30.5531
rwrist 35.1372
rhand -31.0627 -14.1756
rfingers 7.12502
rthumb -4.34367 -44.1111
lclavicle 1.31198e-014 -4.77083e-015
lhumerus -47.1617 -9.27348 87.3903
lradius 27.2002
lwrist -10.2222
lhand -37.3406 7.3877
lfingers 7.12502
lthumb -10.4032 37.1103
rfemur 37.5218 -9.93513 20.5238
rtibia -2.54444e-014
rfoot -12.9374 6.96911
rtoes -24.2887
lfemur -28.7014 5.40651 -14.2692
ltibia 43.709
lfoot -19.6171 -11.172
ltoes -8.90735
165
root 3.09251 16.1976 -6.78499 -4.13138 0.710653 -5.42178
lowerback 6.70946 6.72147 5.56052
upperback 1.49293 9.27861 -3.33836
thorax -0.734616 4.68057 -7.12692
lowerneck -16.013 -11.8203 -12.6928
upperneck 19.241 -17.3314 16.5842
head 11.6072 -7.20271 5.27156
rclavicle -3.18055e-014 -4.77083e-015
rhumerus -26.7665 15.0688 -99.5416
rradius 30.0959
rwrist 34.2368
rhand -30.8753 -14.6911
rfingers 7.12502
rthumb -4.16275 -44.6302
lclavicle -3.18055e-014 -4.77083e-015
lhumerus -46.2379 -9.11067 87.4791
lradius 26.5836
lwrist -10.5005
lhand -37.6243 7.75682
lfingers 7.12502
lthumb -10.6769 37.4655
rfemur 37.9578 -9.84914 20.1767
rtibia 8.5875e-014
rfoot -10.3853 7.27782
rtoes -25.182
lfemur -28.2676 5.78821 -14.3166
ltibia 44.1618
lfoot -19.5043 -11.6897
ltoes -7.77045
166
root 3.11401 16.2192 -6.59824 -4.29037 0.50744 -5.5017
lowerback 6.82349 6.68316 5.58191
upperback 1.67868 9.23293 -3.32698
thorax -0.609548 4.66828 -7.12586
lowerneck -16.2274 -11.7394 -12.4618
upperneck 19.0598 -17.2834 16.8069
head 11.578 -7.13575 5.31535
rclavicle -1.27918e-013 2.38542e-014
rhumerus -27.3543 14.0917 -99.7885
rradius 29.5184
rwrist 33.6293
rhand -30.8999 -15.1101
rfingers 7.12502
rthumb -4.18649 -45.0487
lclavicle -1.27918e-013 2.38542e-014
lhumerus -45.4016 -8.7462 87.3974
lradius 25.9946
lwrist -10.7947
lhand -38.0034 7.85421
lfingers 7.12502
lthumb -11.0425 37.5437
rfemur 38.4661 -9.59614 19.9766
rtibia 3.49861e-014
rfoot -7.5403 7.71103
rtoes -26.8348
lfemur -27.5495 6.62483 -14.1986
ltibia 44.4723
lfoot -19.6539 -11.9954
ltoes -7.18743
167
root 3.13063 16.2474 -6.40917 -4.31555 0.341125 -5.12099
lowerback 6.72057 6.63391 4.89165
upperback 1.81567 9.11375 -3.30935
thorax -0.541807 4.61042 -6.70397
lowerneck -16.3714 -11.5603 -12.4317
upperneck 18.9672 -17.0664 17.0469
head 11.5608 -7.00678 5.43841
rclavicle -3.34952e-014 -7.95139e-015
rhumerus -28.0028 12.6899 -99.6318
rradius 28.8371
rwrist 34.4869
rhand -30.5259 -15.2255
rfingers 7.12502
rthumb -3.82532 -45.1709
lclavicle -3.34952e-014 -7.95139e-015
lhumerus -44.8085 -8.26621 87.5569
lradius 25.6027
lwrist -11.0917
lhand -38.496 8.11854
lfingers 7.12502
lthumb -11.5176 37.7821
rfemur 38.8056 -9.28747 19.2311
rtibia 7.95139e-014
rfoot -4.04579 8.26064
rtoes -27.0394
lfemur -26.7556 7.48608 -14.6229
ltibia 44.5689
lfoot -20.1606 -12.3808
ltoes -6.69264
